<svg version="1.1" preserveAspectRatio="none" xmlns="http://www.w3.org/2000/svg" width="500" height="500" viewBox="0 0 500 500"><rect width="100%" height="100%" fill="#121212" fill-opacity="1"/><svg viewBox="1043.4877 890.3172 392.2895 140.4" width="333" height="119.18035022604481" x="83.5px" y="190.4098px" xmlns="http://www.w3.org/2000/svg" xmlns:xlink="http://www.w3.org/1999/xlink" preserveAspectRatio="none"><defs></defs><style>.a6izo4zJpcolor {fill:#F5F5F5;fill-opacity:1;}.companyName {fill:#F5F5F5;fill-opacity:1;}.icon3 {fill:#00DCFB;fill-opacity:1;}.icon3-str {stroke:#00DCFB;stroke-opacity:1;}.shapeStroke-str {stroke:#F5F5F5;stroke-opacity:1;}</style><g opacity="1" transform="rotate(0 1043.4877 984.3172)">
<svg width="392.2895" height="6" x="1043.4877" y="984.3172" version="1.1" preserveAspectRatio="none" viewBox="0 0 392.2895 6">
  <defs><rect x="0" y="0" width="392.2895" height="6" rx="4%" ry="4%" id="id-UPl23ini1693277599238"></rect></defs><use class="companyName shapeStroke-str" style="stroke-width:0;" xlink:href="#id-UPl23ini1693277599238"></use>
</svg>
</g><g opacity="1" transform="rotate(0 1043.4877 1004.3172)">
<svg width="239.6216" height="26.4" x="1043.4877" y="1004.3172" version="1.1" preserveAspectRatio="none" viewBox="3.48 -28.56 331.84000000000003 36.56">
  <g transform="matrix(1 0 0 1 0 0)" class="a6izo4zJpcolor"><path id="id-6izo4zJp13" d="M6.60-10.32L6.60 0L3.48 0L3.48-19.84L6.60-19.84L6.60-16.48L7.08-16.48Q8.92-20.40 13.48-20.40L13.48-20.40Q16.92-20.40 18.96-18.26Q21-16.12 21-11.84L21-11.84L21 0L17.88 0L17.88-11.20Q17.88-14.32 16.48-15.88Q15.08-17.44 12.68-17.44L12.68-17.44Q9.84-17.44 8.22-15.50Q6.60-13.56 6.60-10.32L6.60-10.32Z M47.84-8.96L31.84-8.96Q31.96-6 33.68-4.20Q35.40-2.40 38.48-2.40L38.48-2.40Q39.88-2.40 40.92-2.72Q41.96-3.04 42.70-3.60Q43.44-4.16 43.90-4.90Q44.36-5.64 44.64-6.48L44.64-6.48L47.60-5.68Q46.76-2.92 44.50-1.18Q42.24 0.56 38.40 0.56L38.40 0.56Q36.28 0.56 34.50-0.18Q32.72-0.92 31.44-2.28Q30.16-3.64 29.44-5.52Q28.72-7.40 28.72-9.68L28.72-9.68L28.72-10.64Q28.72-12.72 29.46-14.52Q30.20-16.32 31.52-17.62Q32.84-18.92 34.62-19.66Q36.40-20.40 38.48-20.40L38.48-20.40Q40.92-20.40 42.70-19.50Q44.48-18.60 45.62-17.28Q46.76-15.96 47.30-14.40Q47.84-12.84 47.84-11.52L47.84-11.52L47.84-8.96ZM38.48-17.44L38.48-17.44Q37.16-17.44 36.02-17.02Q34.88-16.60 34.02-15.84Q33.16-15.08 32.62-14.06Q32.08-13.04 31.92-11.84L31.92-11.84L44.72-11.84Q44.64-13.12 44.10-14.16Q43.56-15.20 42.70-15.92Q41.84-16.64 40.74-17.04Q39.64-17.44 38.48-17.44Z M74.36-19.84L67.44 0L61.28 0L54.36-19.84L58.04-19.84L64.12-1.44L64.60-1.44L70.68-19.84L74.36-19.84Z M100-8.96L84-8.96Q84.12-6 85.84-4.20Q87.56-2.40 90.64-2.40L90.64-2.40Q92.04-2.40 93.08-2.72Q94.12-3.04 94.86-3.60Q95.60-4.16 96.06-4.90Q96.52-5.64 96.80-6.48L96.80-6.48L99.76-5.68Q98.92-2.92 96.66-1.18Q94.40 0.56 90.56 0.56L90.56 0.56Q88.44 0.56 86.66-0.18Q84.88-0.92 83.60-2.28Q82.32-3.64 81.60-5.52Q80.88-7.40 80.88-9.68L80.88-9.68L80.88-10.64Q80.88-12.72 81.62-14.52Q82.36-16.32 83.68-17.62Q85-18.92 86.78-19.66Q88.56-20.40 90.64-20.40L90.64-20.40Q93.08-20.40 94.86-19.50Q96.64-18.60 97.78-17.28Q98.92-15.96 99.46-14.40Q100-12.84 100-11.52L100-11.52L100-8.96ZM90.64-17.44L90.64-17.44Q89.32-17.44 88.18-17.02Q87.04-16.60 86.18-15.84Q85.32-15.08 84.78-14.06Q84.24-13.04 84.08-11.84L84.08-11.84L96.88-11.84Q96.80-13.12 96.26-14.16Q95.72-15.20 94.86-15.92Q94-16.64 92.90-17.04Q91.80-17.44 90.64-17.44Z M106.68-16.96L106.68-19.84L113.88-19.84L113.88-17.20L114.36-17.20Q115.12-18.84 116.52-19.62Q117.92-20.40 119.72-20.40L119.72-20.40Q122.72-20.40 124.56-18.44Q126.40-16.48 126.52-12.72L126.52-12.72L123.24-12.24Q123.24-15 121.92-16.22Q120.60-17.44 118.68-17.44L118.68-17.44Q117.44-17.44 116.54-16.96Q115.64-16.48 115.04-15.64Q114.44-14.80 114.16-13.68Q113.88-12.56 113.88-11.28L113.88-11.28L113.88-2.88L118.92-2.88L118.92 0L106.20 0L106.20-2.88L110.76-2.88L110.76-16.96L106.68-16.96Z M175.04 3.92L175.04-3.04L174.56-3.04Q173.60-1.24 171.94-0.34Q170.28 0.56 168.32 0.56L168.32 0.56Q166.32 0.56 164.56-0.12Q162.80-0.80 161.46-2.08Q160.12-3.36 159.34-5.26Q158.56-7.16 158.56-9.60L158.56-9.60L158.56-10.24Q158.56-12.64 159.36-14.54Q160.16-16.44 161.48-17.74Q162.80-19.04 164.56-19.72Q166.32-20.40 168.24-20.40L168.24-20.40Q170.40-20.40 172.02-19.46Q173.64-18.52 174.56-16.72L174.56-16.72L175.04-16.72L175.04-19.84L178.16-19.84L178.16 4.88Q178.16 6.24 177.30 7.12Q176.44 8 175.08 8L175.08 8L162.16 8L162.16 5.12L173.96 5.12Q175.04 5.12 175.04 3.92L175.04 3.92ZM168.40-2.40L168.40-2.40Q169.80-2.40 171.00-2.92Q172.20-3.44 173.10-4.40Q174.00-5.36 174.52-6.70Q175.04-8.04 175.04-9.68L175.04-9.68L175.04-10.16Q175.04-11.76 174.52-13.10Q174.00-14.44 173.10-15.40Q172.20-16.36 170.98-16.90Q169.76-17.44 168.40-17.44L168.40-17.44Q167.00-17.44 165.78-16.92Q164.56-16.40 163.66-15.44Q162.76-14.48 162.26-13.16Q161.76-11.84 161.76-10.24L161.76-10.24L161.76-9.60Q161.76-7.92 162.26-6.60Q162.76-5.28 163.66-4.34Q164.56-3.40 165.76-2.90Q166.96-2.40 168.40-2.40Z M192.20-25.76L192.20-25.76Q192.20-26.92 193.02-27.74Q193.84-28.56 195.00-28.56L195.00-28.56Q196.16-28.56 196.98-27.74Q197.80-26.92 197.80-25.76L197.80-25.76Q197.80-24.60 196.98-23.78Q196.16-22.96 195.00-22.96L195.00-22.96Q193.84-22.96 193.02-23.78Q192.20-24.60 192.20-25.76ZM186.52 0L186.52-2.88L193.48-2.88L193.48-16.96L187.24-16.96L187.24-19.84L196.60-19.84L196.60-2.88L203.08-2.88L203.08 0L186.52 0Z M230.84-19.84L223.92 0L217.76 0L210.84-19.84L214.52-19.84L220.60-1.44L221.08-1.44L227.16-19.84L230.84-19.84Z M256.48-8.96L240.48-8.96Q240.60-6 242.32-4.20Q244.04-2.40 247.12-2.40L247.12-2.40Q248.52-2.40 249.56-2.72Q250.60-3.04 251.34-3.60Q252.08-4.16 252.54-4.90Q253.00-5.64 253.28-6.48L253.28-6.48L256.24-5.68Q255.40-2.92 253.14-1.18Q250.88 0.56 247.04 0.56L247.04 0.56Q244.92 0.56 243.14-0.18Q241.36-0.92 240.08-2.28Q238.80-3.64 238.08-5.52Q237.36-7.40 237.36-9.68L237.36-9.68L237.36-10.64Q237.36-12.72 238.10-14.52Q238.84-16.32 240.16-17.62Q241.48-18.92 243.26-19.66Q245.04-20.40 247.12-20.40L247.12-20.40Q249.56-20.40 251.34-19.50Q253.12-18.60 254.26-17.28Q255.40-15.96 255.94-14.40Q256.48-12.84 256.48-11.52L256.48-11.52L256.48-8.96ZM247.12-17.44L247.12-17.44Q245.80-17.44 244.66-17.02Q243.52-16.60 242.66-15.84Q241.80-15.08 241.26-14.06Q240.72-13.04 240.56-11.84L240.56-11.84L253.36-11.84Q253.28-13.12 252.74-14.16Q252.20-15.20 251.34-15.92Q250.48-16.64 249.38-17.04Q248.28-17.44 247.12-17.44Z M304.52-9.52L304.52-19.84L307.64-19.84L307.64 0L304.52 0L304.52-3.60L304.04-3.60Q303.08-1.68 301.52-0.56Q299.96 0.56 297.56 0.56L297.56 0.56Q295.92 0.56 294.54 0.02Q293.16-0.52 292.18-1.60Q291.20-2.68 290.66-4.28Q290.12-5.88 290.12-8L290.12-8L290.12-19.84L293.24-19.84L293.24-8.40Q293.24-5.28 294.52-3.84Q295.80-2.40 298.44-2.40L298.44-2.40Q301.28-2.40 302.90-4.34Q304.52-6.28 304.52-9.52L304.52-9.52Z M318.84-3.04L318.84 8L315.72 8L315.72-19.84L318.84-19.84L318.84-16.72L319.32-16.72Q320.36-18.52 322.20-19.46Q324.04-20.40 326.20-20.40L326.20-20.40Q328.04-20.40 329.68-19.72Q331.32-19.04 332.58-17.76Q333.84-16.48 334.58-14.60Q335.32-12.72 335.32-10.32L335.32-10.32L335.32-9.52Q335.32-7.08 334.60-5.20Q333.88-3.32 332.62-2.04Q331.36-0.76 329.68-0.10Q328.00 0.56 326.12 0.56L326.12 0.56Q325.16 0.56 324.16 0.34Q323.16 0.12 322.26-0.34Q321.36-0.80 320.60-1.46Q319.84-2.12 319.32-3.04L319.32-3.04L318.84-3.04ZM325.48-2.40L325.48-2.40Q326.92-2.40 328.12-2.90Q329.32-3.40 330.22-4.32Q331.12-5.24 331.62-6.56Q332.12-7.88 332.12-9.52L332.12-9.52L332.12-10.32Q332.12-11.92 331.62-13.22Q331.12-14.52 330.22-15.46Q329.32-16.40 328.10-16.92Q326.88-17.44 325.48-17.44L325.48-17.44Q324.08-17.44 322.88-16.90Q321.68-16.36 320.78-15.40Q319.88-14.44 319.36-13.10Q318.84-11.76 318.84-10.16L318.84-10.16L318.84-9.68Q318.84-8.04 319.36-6.70Q319.88-5.36 320.78-4.40Q321.68-3.44 322.88-2.92Q324.08-2.40 325.48-2.40Z"/></g>
</svg>
</g><g opacity="1" transform="rotate(0 1043.4877 890.3172)">
<svg width="392.2895" height="80" x="1043.4877" y="890.3172" version="1.1" preserveAspectRatio="none" viewBox="2.8 -28.64 140.44 28.64">
  <g transform="matrix(1 0 0 1 0 0)" class="companyName"><path id="id-D6z1nYkh4" d="M20.32 0L2.80 0L2.80-28.60L7.52-28.60L20.32-28.64Q28.08-28.64 32.36-25Q36.64-21.36 36.64-14.32L36.64-14.32Q36.64-7.28 32.36-3.64Q28.08 0 20.32 0L20.32 0ZM19.88-23.44L19.88-23.44L9.20-23.44L9.20-5.20L19.88-5.20Q24.92-5.20 27.52-7.40Q30.12-9.60 30.12-14.32L30.12-14.32Q30.12-19.08 27.52-21.26Q24.92-23.44 19.88-23.44Z M44.40 0L37.44 0L50.32-28.60L60.20-28.60L73.08 0L66.12 0L63.40-6.04L47.12-6.04L44.40 0ZM55.00-23.60L49.44-11.24L61.08-11.24L55.52-23.60L55.00-23.60Z M82.68 0L76.28 0L76.28-28.60L100.24-28.60Q104.68-28.60 107.14-26.36Q109.60-24.12 109.60-19.56L109.60-19.56Q109.60-15 107.14-12.76Q104.68-10.52 100.24-10.52L100.24-10.52L82.68-10.52L82.68 0ZM99.48-23.40L99.48-23.40L82.68-23.40L82.68-15.76L99.48-15.72Q101.24-15.72 102.18-16.60Q103.12-17.48 103.12-19.56L103.12-19.56Q103.12-21.68 102.18-22.54Q101.24-23.40 99.48-23.40Z M114.56 0L107.60 0L120.48-28.60L130.36-28.60L143.24 0L136.28 0L133.56-6.04L117.28-6.04L114.56 0ZM125.16-23.60L119.60-11.24L131.24-11.24L125.68-23.60L125.16-23.60Z"/></g>
</svg>
</g><g opacity="1" transform="rotate(0 1043.4877 984.3172)">
<svg width="86.3036" height="6" x="1043.4877" y="984.3172" version="1.1" preserveAspectRatio="none" viewBox="0 0 86.3036 6">
  <defs><rect x="0" y="0" width="86.3036" height="6" rx="0px" ry="0px" id="id-o0jQam8yd1693277599238"></rect></defs><use class="icon3 shapeStroke-str" style="stroke-width:0;" xlink:href="#id-o0jQam8yd1693277599238"></use>
</svg>
</g></svg></svg>